<svg xmlns="http://www.w3.org/2000/svg" xmlns:xlink="http://www.w3.org/1999/xlink" viewBox="0 0 1076 574"><defs><style>.a{clip-path:url(#b);}.b{fill:none;stroke:#fff;stroke-width:4px;}.c{fill:#fff;}.d,.e,.f,.g,.h,.i,.j{fill:#100330;font-family:Raleway-Regular, Raleway;}.d{font-size:70px;}.e{font-size:45px;}.f{font-size:38px;}.g{font-size:33px;}.h{font-size:34px;}.i{font-size:32px;}.j{font-size:29px;}.k{fill:rgba(255,255,255,0);}</style><clipPath id="b"><rect width="1076" height="574"/></clipPath></defs><g id="a" class="a"><rect class="k" width="1076" height="574"/><path class="b" d="M0,0S61.719-9.282,140.969,48.468,317,231,317,231" transform="translate(75.5 78.5)"/><path class="b" d="M0,27S64.921,46.406,143.921,39.656,316,0,316,0" transform="translate(76.5 309.5)"/><path class="b" d="M0,207s81.648-37.023,132.148-88.773S202,0,202,0" transform="translate(190.5 309.5)"/><path class="b" d="M204,194s-96.123,1.453-147.123-47.047S0,0,0,0" transform="translate(392.5 309.5)"/><path class="b" d="M129,0S59.411-3.163,19.7,43.3-24.229,186.929-24.229,186.929" transform="translate(392.5 84.5)"/><path class="b" d="M383,0S311.459-17,215.709,21,0,152,0,152" transform="translate(392.5 157.5)"/><path class="b" d="M322.159-12.62s-70.8,4.253-147.174,29.654S35.5,101.6,35.5,101.6" transform="translate(392.5 280.5)"/><path class="b" d="M629,0S587.192,98.479,426.5,136.751,174.986,15.937,174.986,15.937" transform="translate(392.5 280.5)"/><circle class="c" cx="130.5" cy="130.5" r="130.5" transform="translate(262 172)"/><circle class="c" cx="45.5" cy="45.5" r="45.5" transform="translate(171 84)"/><circle class="c" cx="64" cy="64" r="64" transform="translate(12 272)"/><circle class="c" cx="69.5" cy="69.5" r="69.5" transform="translate(1 1)"/><circle class="c" cx="59" cy="59" r="59" transform="translate(537 444)"/><circle class="c" cx="42.5" cy="42.5" r="42.5" transform="translate(733 115)"/><circle class="c" cx="29" cy="29" r="29" transform="translate(585 148)"/><circle class="c" cx="75.5" cy="75.5" r="75.5" transform="translate(446 9)"/><circle class="c" cx="63.5" cy="63.5" r="63.5" transform="translate(649 204)"/><circle class="c" cx="56.5" cy="56.5" r="56.5" transform="translate(134 460)"/><circle class="c" cx="88" cy="88" r="88" transform="translate(753 330)"/><circle class="c" cx="53.5" cy="53.5" r="53.5" transform="translate(968 227)"/><text class="d" transform="translate(302 324)"><tspan x="0" y="0">OSLC</tspan></text><text class="e" transform="translate(840 413)"><tspan x="-69.66" y="0">Linked</tspan><tspan x="-48.06" y="53">Data</tspan></text><text class="f" transform="translate(522 75)"><tspan x="-53.865" y="0">Hyper</tspan><tspan x="-54.929" y="45">media</tspan></text><text class="g" transform="translate(71 82)"><tspan x="-63.442" y="0">SPARQL</tspan></text><text class="f" transform="translate(76 331)"><tspan x="-49.609" y="0">JSON</tspan><tspan x="-24.662" y="45">LD</tspan></text><text class="h" transform="translate(1022 278)"><tspan x="-47.685" y="0">Graph</tspan><tspan x="-31.756" y="40">DBs</tspan></text><text class="i" transform="translate(713 279)"><tspan x="-57.92" y="0">Gremlin</tspan></text><text class="h" transform="translate(596 496)"><tspan x="-34.799" y="0">Rest</tspan><tspan x="-26.282" y="40">API</tspan></text><text class="j" transform="translate(217 123)"><tspan x="-36.801" y="0">Open</tspan><tspan x="-22.417" y="34">API</tspan></text><text class="j" transform="translate(191 510)"><tspan x="-36.801" y="0">Open</tspan><tspan x="-47.154" y="34">Source</tspan></text><text class="j" transform="translate(775 149)"><tspan x="-21.779" y="0">Big</tspan><tspan x="-30.972" y="34">Data</tspan></text><text class="i" transform="translate(588 188)"><tspan x="0" y="0">&lt;/&gt;</tspan></text></g></svg>